{
  "title": "The.Golden.Dream.[La.Jaula.de.Oro].2013.DVDRip.XviD.HORiZON-ArtS",
  "uid": 9942138,
  "size": 1764283584,
  "categoryP": "video",
  "categoryS": "movies",
  "magnet": "?xt=urn:btih:e688db90d207611a9c5b2c6654991a9da046ec71&amp;dn=The.Golden.Dream.%5BLa.Jaula.de.Oro%5D.2013.DVDRip.XviD.HORiZON-ArtS&amp;tr=udp%3A%2F%2Ftracker.openbittorrent.com%3A80&amp;tr=udp%3A%2F%2Fopen.demonii.com%3A1337&amp;tr=udp%3A%2F%2Ftracker.coppersurfer.tk%3A6969&amp;tr=udp%3A%2F%2Fexodus.desync.com%3A6969",
  "seeders": 57,
  "leechers": 5,
  "uploader": "lletaif",
  "files": 1,
  "time": 1397265896,
  "description": "Title:\nThe Golden Dream Aka La Jaula de Oro\n\n\nCountry:\nMexico/Guatemala, 2013\n\n\nLanguage:\nSpanish\n\n\nNo Subtitle\n\n\nIMDB: &lt;a href=&quot;\nhttp://www.imdb.com/title/tt2042583/?ref_=fn_al_tt_1&quot; rel=&quot;nofollow&quot; target=&quot;_NEW&quot;&gt;\nhttp://www.imdb.com/title/tt2042583/?ref_=fn_al_tt_1&lt;/a&gt;\n\n\nTrivia:\n17 wins and 6 nominations\n\nWon Un Certain Regard - A Certain Talent Prize in Cannes Film Festival 2013\n\n\nPlot:\nJuan, Sara and Samuel, three teenagers from the slums of Guatemala, travel to the US in search of a better life. On their journey through Mexico, they meet Ch auk, an Indian from Chaps who doesn't speak Spanish. Traveling together in cargo trains, walking on the railroad tracks, they soon have to face a harsh reality.\n\n\nMedia Info:\n\nGeneral\nComplete name                            : The.Golden.Dream.[La.Jaula.de.Oro].2013.DVDRip.XviD.HORiZON-ArtSubs.avi\nFormat                                   : AVI\nFormat/Info                              : Audio Video Interleave\nFormat profile                           : OpenDML\nFile size                                : 1.64 GiB\nDuration                                 : 1h 43mn\nOverall bit rate                         : 2 267 Kbps\nWriting application                      : Lavf54.63.104\n\n\nVideo\nID                                       : 0\nFormat                                   : MPEG-4 Visual\nFormat profile                           : Advanced Simple@L5\nFormat settings, BVOP                    : 2\nFormat settings, QPel                    : No\nFormat settings, GMC                     : No warppoints\nFormat settings, Matrix                  : Default (MPEG)\nMuxing mode                              : Packed bitstream\nCodec ID                                 : XVID\nCodec ID/Hint                            : XviD\nDuration                                 : 1h 43mn\nBit rate                                 : 2 000 Kbps\nWidth                                    : 720 pixels\nHeight                                   : 304 pixels\nDisplay aspect ratio                     : 2.35:1\nFrame rate                               : 25.000 fps\nColor space                              : YUV\nChroma subsampling                       : 4:2:0\nBit depth                                : 8 bits\nScan type                                : Progressive\nCompression mode                         : Lossy\nBits/(Pixel*Frame)                       : 0.365\nStream size                              : 1.45 GiB (88%)\nWriting library                          : XviD 64\n\nAudio\nID                                       : 1\nFormat                                   : AC-3\nFormat/Info                              : Audio Coding 3\nMode extension                           : CM (complete main)\nFormat settings, Endianness              : Big\nCodec ID                                 : 2000\nDuration                                 : 1h 43mn\nBit rate mode                            : Constant\nBit rate                                 : 256 Kbps\nChannel count                            : 6 channels\nChannel positions                        : Front: L C R, Side: L R, LFE\nSampling rate                            : 48.0 KHz\nBit depth                                : 16 bits\nCompression mode                         : Lossy\nStream size                              : 190 MiB (11%)\nAlignment                                : Aligned on interleaves\nInterleave, duration                     : 32 ms (0.80 video frame)\n\n",
  "parsed": {
    "xt": "urn:btih:e688db90d207611a9c5b2c6654991a9da046ec71",
    "dn": "The.Golden.Dream.[La.Jaula.de.Oro].2013.DVDRip.XviD.HORiZON-ArtS",
    "tr": [
      "udp://exodus.desync.com:6969",
      "udp://open.demonii.com:1337",
      "udp://tracker.coppersurfer.tk:6969",
      "udp://tracker.openbittorrent.com:80"
    ],
    "infoHash": "e688db90d207611a9c5b2c6654991a9da046ec71",
    "infoHashBuffer": {
      "type": "Buffer",
      "data": [
        230,
        136,
        219,
        144,
        210,
        7,
        97,
        26,
        156,
        91,
        44,
        102,
        84,
        153,
        26,
        157,
        160,
        70,
        236,
        113
      ]
    },
    "name": "The.Golden.Dream.[La.Jaula.de.Oro].2013.DVDRip.XviD.HORiZON-ArtS",
    "announce": [
      "udp://exodus.desync.com:6969",
      "udp://open.demonii.com:1337",
      "udp://tracker.coppersurfer.tk:6969",
      "udp://tracker.openbittorrent.com:80"
    ],
    "urlList": []
  },
  "previous": 62,
  "peers": 59,
  "last_updated": "2016-12-25T16:45:07.640Z"
}